<svg xmlns="http://www.w3.org/2000/svg" width="300" height="300" fill="#E60000" data-name="Layer 1" viewBox="0 0 100 100">
  <defs/>
  <path fill="none" stroke="#e60000" stroke-miterlimit="10" d="M51.6 72.46l-1-2-3.85-7.84A2.13 2.13 0 0045 61.39l-3.72-.25a2 2 0 01-1.75-1.32 28.18 28.18 0 010-19.64 2 2 0 011.75-1.32l3.72-.25a2.13 2.13 0 001.78-1.19l3.85-7.84 1-2s0 0 0 0a2.14 2.14 0 00.21-.93 2.09 2.09 0 00-.54-1.41 9.06 9.06 0 00-7.73-3l-.71.09-.37.05a4.7 4.7 0 00-.5.08l-.49.12h0C35 24.24 29.89 34.9 29.39 48.13h0V51.89h0c.5 13.21 5.61 23.87 12.09 25.63h0l.49.12a4.7 4.7 0 00.5.08l.37.05.71.09a9.06 9.06 0 007.73-3 2.09 2.09 0 00.54-1.41 2.14 2.14 0 00-.21-.93s-.01-.05-.01-.06z"/>
  <path fill="none" stroke="#e60000" stroke-linecap="round" stroke-linejoin="round" d="M50.83 50.65l4.48 3.53 4 3.12a.83.83 0 001.35-.65v-3h9.21a.83.83 0 00.83-.83v-5.6a.83.83 0 00-.83-.83h-9.26v-3a.83.83 0 00-1.35-.65l-4 3.12-4.48 3.53a.83.83 0 00.05 1.26z"/>
</svg>
